# xmcd CD database file
#
# Track frame offsets:
#	150
#	18342
#	37049
#	52162
#	68707
#	89474
#	107821
#	125201
#	148751
#	165893
#	187138
#	206623
#	219715
#
# Disc length: 3249 seconds
#
# Revision: 0
# Processed by: cddbd v1.5.2PL0 Copyright (c) Steve Scherf et al.
# Submitted via: CDex 1.51
#
DISCID=c90caf0d
DTITLE=Nicki Parrott - Moon River
DYEAR=2007
DGENRE=Jazz
TTITLE0=Moon River
TTITLE1=Is You Is Or Is You Ain't My Baby?
TTITLE2=Say It Isn't So
TTITLE3=You'd Be So Nice To Come Home To
TTITLE4=Takin' A Chance On Love
TTITLE5=I Don't Know Enough About You
TTITLE6=Makin' Whoopee
TTITLE7=Cry Me A River
TTITLE8=What A Difference A Day Made
TTITLE9=Besame Mucho
TTITLE10=I Can't Give You Anything But Love
TTITLE11=Nicki's Blues
TTITLE12=The More I See You
EXTD=YEAR: 2007
EXTT0=
EXTT1=
EXTT2=
EXTT3=
EXTT4=
EXTT5=
EXTT6=
EXTT7=
EXTT8=
EXTT9=
EXTT10=
EXTT11=
EXTT12=
PLAYORDER=
